
        <svg xmlns="http://www.w3.org/2000/svg" xmlns:xlink="http://www.w3.org/1999/xlink" version="1.1" width="3171.4285714285716" 
        height="1905.3719694018548" viewBox="0 0 3171.4285714285716 1905.3719694018548">
			
			<g transform="scale(8.571428571428571) translate(10, 10)">
				<defs id="SvgjsDefs3835"><linearGradient id="SvgjsLinearGradient3840"><stop id="SvgjsStop3841" stop-color="#fbb040" offset="0"></stop><stop id="SvgjsStop3842" stop-color="#f9ed32" offset="1"></stop></linearGradient></defs><g id="SvgjsG3836" featureKey="symbolFeature-0" transform="matrix(0.19943019943019943,0,0,0.19943019943019943,105.1994301994302,0.19943019943019943)" fill="url(#SvgjsLinearGradient3840)"><g xmlns="http://www.w3.org/2000/svg"><title>background</title><rect x="-1" y="-1" width="702" height="702" style="fill: none;"></rect></g><g xmlns="http://www.w3.org/2000/svg"><title>Layer 1</title><g><g><path d="M222,158.3c-31,0.7-57.5,21-79.5,60.8c-23.1,44.8-34.5,94.6-34.3,149.4c0.4,6.6,1.1,7.2,2.2,1.9     c9.3-40.3,19-71.8,29.1-94.6c9.9-22.9,20.9-41.7,32.9-56.2c27.6-32.1,51.5-37.3,71.8-15.6c22.2,25.6,34,68.8,35.4,129.4     c-1.2,81.5-11.9,143.1-32.1,185c-25.3,51-51.3,68-77.7,50.8c-36-28.7-56-92.3-60-190.6c-1.4-3.4-2.7-0.9-3.7,7.5     c-1.9,10.2-3.2,21.4-4,33.3c-3,53.4,4.1,98.7,21.2,135.9c17.5,35.3,40.8,53.2,69.9,53.8c31.4-0.5,60-21,85.9-61.7     c25.8-42.5,42.4-94.3,49.7-155.6c2.7-65.2-6.1-120.7-26.3-166.5c-20.4-43.6-47.1-66-80-67.2"></path></g><g><path d="M452,134.1c-16.1-26.4-46.9-39.3-92.4-38.5c-50.3,2.4-99.2,17.4-146.6,45c-5.5,3.6-5.7,4.6-0.6,2.9     c39.6-12.1,71.7-19.5,96.4-22.1c24.8-2.9,46.5-2.8,65.1,0.4c41.6,7.9,58.1,26,49.4,54.4c-11.1,32-42.6,63.8-94.4,95.4     c-71.2,39.7-129.9,61.3-176.2,64.7c-56.9,3.6-84.5-10.4-82.8-41.9C77,248.8,122,199.7,205.1,147c2.2-2.9-0.6-2.7-8.3,0.6     c-9.8,3.5-20.1,7.9-30.9,13.2c-47.7,24.1-83.5,52.9-107.1,86.3c-21.8,32.8-25.7,62-11.7,87.4c16.1,26.9,48.2,41.4,96.4,43.5     c49.7,1.1,102.9-10.4,159.6-34.8c57.8-30.3,101.5-65.6,131-106c27.6-39.5,33.6-73.8,18.2-102.9"></path></g><g><path d="M588,321.2c14.8-27.2,10.6-60.3-12.9-99.3c-27.3-42.4-64.7-77.2-112.3-104.4c-5.9-3-6.8-2.7-2.8,0.9     c30.3,28.2,52.7,52.4,67.4,72.4c14.9,20.1,25.7,38.9,32.2,56.6c14,40,6.5,63.3-22.4,69.9c-33.3,6.4-76.5-5-129.8-34     c-69.9-41.8-118-81.9-144.2-120.2c-31.5-47.5-33.2-78.4-5.1-92.7c42.9-16.8,107.9-2.3,195.1,43.4c3.6,0.4,2.1-1.9-4.7-6.9     c-7.9-6.8-16.9-13.5-26.9-20.2c-44.7-29.3-87.5-45.8-128.3-49.6c-39.3-2.5-66.5,8.7-81.6,33.6c-15.3,27.4-11.8,62.5,10.5,105.2     c23.9,43.6,60.5,83.9,109.9,120.8c55.1,34.9,107.6,55.1,157.3,60.4c48,4.1,80.8-7.8,98.2-35.7"></path></g><g><path d="M494,532.5c31-0.7,57.5-21,79.5-60.8c23.1-44.8,34.5-94.6,34.3-149.4c-0.4-6.6-1.1-7.2-2.2-1.9     c-9.3,40.3-19,71.8-29.1,94.6c-9.9,22.9-20.9,41.7-32.9,56.2c-27.6,32.1-51.5,37.3-71.8,15.6c-22.2-25.6-34-68.8-35.4-129.4     c1.2-81.5,11.9-143.1,32.1-185c25.3-51,51.3-68,77.7-50.8c36,28.7,56,92.3,60,190.6c1.4,3.4,2.7,0.9,3.7-7.5     c1.9-10.2,3.2-21.4,4-33.3c3-53.4-4.1-98.7-21.2-135.9c-17.5-35.3-40.8-53.2-69.9-53.8c-31.4,0.5-60,21-85.9,61.7     c-25.8,42.5-42.4,94.3-49.7,155.6c-2.7,65.2,6.1,120.7,26.3,166.5c20.4,43.6,47.1,66,80,67.2"></path></g><g><path d="M128,369.6c-14.8,27.2-10.6,60.3,12.9,99.3c27.3,42.4,64.7,77.2,112.3,104.4c5.9,3,6.8,2.7,2.8-0.9     c-30.3-28.2-52.7-52.4-67.4-72.4c-14.9-20.1-25.7-38.9-32.2-56.6c-14-40-6.5-63.3,22.4-69.9c33.3-6.4,76.5,5,129.8,34     c69.9,41.8,118,81.9,144.2,120.2c31.5,47.5,33.2,78.4,5.1,92.7c-42.9,16.8-107.9,2.3-195.1-43.4c-3.6-0.4-2.1,1.9,4.7,6.9     c7.9,6.8,16.9,13.5,26.9,20.2c44.7,29.3,87.5,45.8,128.3,49.6c39.3,2.5,66.5-8.7,81.6-33.6c15.3-27.4,11.8-62.5-10.5-105.2     c-23.9-43.6-60.5-83.9-109.9-120.8c-55.1-34.9-107.6-55.1-157.3-60.4c-48-4.1-80.8,7.8-98.2,35.7"></path></g><g><path d="M264,556.7c16.1,26.4,46.9,39.3,92.4,38.5c50.3-2.4,99.2-17.4,146.6-45c5.5-3.6,5.7-4.6,0.6-2.9     c-39.6,12.1-71.7,19.5-96.4,22.1c-24.8,2.9-46.5,2.8-65.1-0.4c-41.6-7.9-58.1-26-49.4-54.4c11.1-32,42.6-63.8,94.4-95.4     c71.2-39.7,129.9-61.3,176.2-64.7c56.9-3.6,84.5,10.4,82.8,41.9c-6.9,45.5-51.9,94.6-135.1,147.3c-2.2,2.9,0.6,2.7,8.3-0.6     c9.8-3.5,20.1-7.9,30.9-13.2c47.7-24.1,83.5-52.9,107.1-86.3c21.8-32.8,25.7-62,11.7-87.4c-16.1-26.9-48.2-41.4-96.3-43.5     c-49.7-1.1-102.9,10.4-159.6,34.8c-57.8,30.3-101.5,65.6-131,106c-27.6,39.5-33.6,73.8-18.2,102.9"></path></g></g></g></g><g id="SvgjsG3837" featureKey="nameFeature-0" transform="matrix(1.6998955425690896,0,0,1.6998955425690896,-3.875761383136443,133.95759594316834)" fill="#767048"><path d="M17.08 15.52 l6 0 l0 24.48 l-6 0 l0 -9.44 l-8.8 0 l0 9.44 l-6 0 l0 -24.48 l6 0 l0 9.48 l8.8 0 l0 -9.48 z M38.144999999999996 40 l0 -9.08 c-4.84 -1.08 -7.64 -5.08 -7.64 -9.88 l0 -5.52 l6 0 l0 5.52 c0 2.88 1.72 4.64 4.6 4.64 c2.96 0 4.6 -1.72 4.6 -4.64 l0 -5.52 l6 0 l0 5.52 c0 4.88 -2.84 8.76 -7.56 9.88 l0 9.08 l-6 0 z M59.09 40 l0 -24.48 l11.6 0 c4.56 0 8.44 3.44 8.44 8.04 c0 4.64 -4 8.04 -8.44 8.04 l-5.6 0 l0 8.4 l-6 0 z M70.69 21.08 l-5.6 0 l0 4.96 l5.6 0 c1.4 0 2.44 -1.08 2.44 -2.48 s-1.04 -2.48 -2.44 -2.48 z M86.11500000000001 15.52 l18.2 0 l0 5.56 l-12.2 0 l0 3.92 l9.8 0 l0 5.56 l-9.8 0 l0 3.88 l12.2 0 l0 5.56 l-18.2 0 l0 -24.48 z M117.70000000000002 21.16 l0 5.84 l5.6 0 c1.84 0 2.92 -1.08 2.92 -2.92 s-1.08 -2.92 -2.92 -2.92 l-5.6 0 z M126.78000000000002 30.96 c1.12 1.52 2.24 3.04 3.4 4.52 c1.12 1.48 2.24 3 3.36 4.52 l-7.32 0 c-1.44 -1.92 -2.84 -3.84 -4.24 -5.76 c-1.4 -1.88 -2.84 -3.8 -4.28 -5.72 l0 11.48 l-6 0 l0 -24.48 l11.6 0 c4.56 0 8.44 3.48 8.44 8.08 c0 3.24 -2 6.08 -4.96 7.36 z M140.00500000000002 15.52 l6 0 l0 24.48 l-6 0 l0 -24.48 z M166.27 34.64 c4.36 0 6.6 -2.8 6.6 -6.88 c0 -4.32 -2.4 -6.88 -6.6 -6.88 c-4.4 0 -6.6 2.8 -6.6 6.88 c0 4.24 2.44 6.88 6.6 6.88 z M166.27 40.2 c-7.52 0 -12.6 -5.12 -12.6 -12.44 c0 -7.56 5.32 -12.44 12.6 -12.44 c7.56 0 12.6 5.08 12.6 12.44 c0 7.6 -5.28 12.44 -12.6 12.44 z M202.175 15.52 l6 0 l0 24.48 l-6 0 l-9.6 -14.32 l0 14.32 l-6 0 l0 -24.48 l6 0 l9.6 14.32 l0 -14.32 z"></path></g>
			</g>
		</svg>
	